<?xml version="1.0"?>
<svg xmlns="http://www.w3.org/2000/svg" width="400" height="440">
	<path d="m 333.38793,395.23964 45.71429,-134.15492 h -82.74045 l -12.85632,106.82992 -7.7138,8.03676 c -12.34207,3.21471 -22.62713,4.82206 -31.36943,4.82206 -76.62363,0 -123.42071,-56.79315 -123.42071,-152.69856 0,-94.83385 46.28282,-151.091101 116.73542,-151.091101 13.37058,0 26.74116,2.67881 40.62599,8.03665 l 7.19954,9.10834 9.77081,93.328931 85.19752,-1.42857 -47.14286,-124.047431 c -34.45489,-12.85882 -69.4241,-19.82402 -104.90755,-19.82402 -53.48225,0 -97.19381,16.60937 -129.591736,49.29217 -34.9692,34.825991 -53.48231,82.510801 -53.48231,137.160811 0,68.58041 31.88368,128.58827 85.365986,161.8069 25.19839,15.53775 57.59638,24.1103 94.62254,24.1103 37.54047,0 73.53818,-6.42941 107.99307,-19.28824 z" fill="navy" />
</svg>
